# xmcd
#
# Track frame offsets: 
#        150
#        22432
#        43939
#        64602
#        80645
#        97052
#        118487
#        153052
#        174227
#        190952
#
# Disc length: 2899 seconds
#
# Revision: 2
# Processed by: cddbd v1.5.2PL0 Copyright (c) Steve Scherf et al.
# Submitted via: ExactAudioCopy v0.95a4
#
DISCID=8b0b510a
DTITLE=Swamp Cabbage - Squeal
DYEAR=2008
DGENRE=Blues
TTITLE0=Jesus Tone
TTITLE1=Dixieland
TTITLE2=Feedbag
TTITLE3=Sopchoppy
TTITLE4=Necktie Man
TTITLE5=Purdy Mouth
TTITLE6=Poontang
TTITLE7=New Voodoo Boogaloo
TTITLE8=Softshoe
TTITLE9=Delegation
EXTD=Year: 2008\n\n\n\n\n\n                                           
EXTD=     www.swampcabbage.com
EXTT0=
EXTT1=
EXTT2=
EXTT3=
EXTT4=
EXTT5=
EXTT6=
EXTT7=
EXTT8=
EXTT9=
PLAYORDER=
